<svg width="96" height="83" viewBox="0 0 96 83" fill="none" xmlns="http://www.w3.org/2000/svg">
<g filter="url(#filter0_d_120_4394)">
<circle cx="48" cy="31" r="24" fill="#008069"/>
</g>
<path d="M57.2556 21.6328C54.9174 19.2891 51.8036 18 48.4944 18C41.6641 18 36.106 23.558 36.106 30.3884C36.106 32.5703 36.6752 34.702 37.7578 36.5826L36 43L42.5681 41.2757C44.3761 42.2634 46.4129 42.7824 48.4888 42.7824H48.4944C55.3192 42.7824 61 37.2243 61 30.394C61 27.0848 59.5938 23.9766 57.2556 21.6328ZM48.4944 40.6953C46.6417 40.6953 44.8281 40.1987 43.2489 39.2612L42.875 39.0379L38.9799 40.0592L40.0179 36.2589L39.7723 35.8683C38.74 34.2277 38.1987 32.3359 38.1987 30.3884C38.1987 24.7132 42.8192 20.0926 48.5 20.0926C51.2511 20.0926 53.8348 21.1641 55.7768 23.1116C57.7188 25.0592 58.9129 27.6429 58.9074 30.394C58.9074 36.0748 54.1696 40.6953 48.4944 40.6953ZM54.1417 32.9833C53.8348 32.827 52.3114 32.0792 52.0268 31.9788C51.7422 31.8728 51.5357 31.8225 51.3292 32.135C51.1228 32.4475 50.5313 33.1395 50.3471 33.3516C50.1685 33.558 49.9844 33.5859 49.6775 33.4297C47.8583 32.5201 46.6641 31.8058 45.4643 29.7467C45.1462 29.1998 45.7824 29.2388 46.3739 28.0558C46.4743 27.8493 46.4241 27.6708 46.346 27.5145C46.2679 27.3583 45.6484 25.8348 45.3917 25.2154C45.1406 24.6127 44.8839 24.6964 44.6942 24.6853C44.5156 24.6741 44.3092 24.6741 44.1027 24.6741C43.8962 24.6741 43.5614 24.7522 43.2768 25.0592C42.9922 25.3717 42.1942 26.1194 42.1942 27.6429C42.1942 29.1663 43.3047 30.6395 43.4554 30.846C43.6116 31.0525 45.6373 34.1775 48.7455 35.5223C50.7098 36.3705 51.4799 36.4431 52.4621 36.298C53.0592 36.2087 54.2924 35.5502 54.5491 34.8248C54.8058 34.0993 54.8058 33.4799 54.7277 33.3516C54.6551 33.2121 54.4487 33.1339 54.1417 32.9833Z" fill="white"/>
<defs>
<filter id="filter0_d_120_4394" x="0" y="-13" width="96" height="96" filterUnits="userSpaceOnUse" color-interpolation-filters="sRGB">
<feFlood flood-opacity="0" result="BackgroundImageFix"/>
<feColorMatrix in="SourceAlpha" type="matrix" values="0 0 0 0 0 0 0 0 0 0 0 0 0 0 0 0 0 0 127 0" result="hardAlpha"/>
<feOffset dy="4"/>
<feGaussianBlur stdDeviation="12"/>
<feComposite in2="hardAlpha" operator="out"/>
<feColorMatrix type="matrix" values="0 0 0 0 0 0 0 0 0 0 0 0 0 0 0 0 0 0 0.08 0"/>
<feBlend mode="normal" in2="BackgroundImageFix" result="effect1_dropShadow_120_4394"/>
<feBlend mode="normal" in="SourceGraphic" in2="effect1_dropShadow_120_4394" result="shape"/>
</filter>
</defs>
</svg>
